<svg width="31" height="32" viewBox="0 0 31 32" fill="none" xmlns="http://www.w3.org/2000/svg">
<g id="Group 196">
<path id="Vector" d="M15.5 31.5C23.8001 31.5 30.5 24.5443 30.5 16C30.5 7.4557 23.8001 0.5 15.5 0.5C7.19989 0.5 0.5 7.4557 0.5 16C0.5 24.5443 7.19989 31.5 15.5 31.5Z" fill="#BBFF2C" stroke="black"/>
<path id="Vector_2" d="M18.0222 7.75287C17.8822 7.99913 17.7286 8.30295 17.5953 8.59312C16.2033 8.41812 14.7949 8.41836 13.4007 8.5938C13.2658 8.30809 13.1203 8.02855 12.9669 7.75525C12.8636 7.57119 12.6558 7.47183 12.4477 7.50698C10.9038 7.76766 9.40296 8.23227 7.98536 8.89099C7.90248 8.9295 7.83174 8.98999 7.78083 9.06588C4.97809 13.2438 4.21058 17.3417 4.59082 21.3647C4.60415 21.5057 4.67668 21.6345 4.7904 21.719C6.44032 22.9449 8.29084 23.8803 10.2587 24.4784C10.4618 24.5401 10.6818 24.4669 10.8073 24.2957C11.2511 23.6904 11.6487 23.0503 11.9897 22.3785C12.0218 22.3152 12.0397 22.2467 12.0432 22.1774C14.3044 22.8043 16.6963 22.804 18.9574 22.1765C18.9604 22.2472 18.9783 22.3173 19.0111 22.3817C19.3514 23.0524 19.7461 23.6936 20.1953 24.2982C20.3212 24.4677 20.54 24.5398 20.7421 24.4784C22.7094 23.8804 24.5602 22.9483 26.2108 21.7186C26.3242 21.6341 26.3965 21.5057 26.4099 21.365C26.8536 16.697 25.6391 12.6398 23.202 9.05365C23.1385 8.96028 23.0476 8.89382 22.9457 8.86005C21.5417 8.22109 20.0625 7.76459 18.5403 7.50701C18.3331 7.47195 18.126 7.57019 18.0222 7.75287ZM12.0114 18.4113C11.303 18.4113 10.6248 17.7411 10.6248 16.7972C10.6248 15.8467 11.2894 15.1734 12.0114 15.1734C12.7401 15.1734 13.409 15.8439 13.4012 16.7866C13.3932 17.745 12.7324 18.4113 12.0114 18.4113ZM18.9894 18.4113C18.281 18.4113 17.6028 17.7411 17.6028 16.7972C17.6028 15.8467 18.2674 15.1734 18.9894 15.1734C19.7182 15.1734 20.3864 15.8437 20.3759 16.7852C20.3652 17.7472 19.7083 18.4113 18.9894 18.4113Z" fill="white" stroke="black" stroke-linejoin="round"/>
</g>
</svg>
