<svg width="31" height="32" viewBox="0 0 31 32" fill="none" xmlns="http://www.w3.org/2000/svg">
<g id="Component 16">
<path id="Vector" d="M15.5 31.5C23.8001 31.5 30.5 24.5443 30.5 16C30.5 7.4557 23.8001 0.5 15.5 0.5C7.19989 0.5 0.5 7.4557 0.5 16C0.5 24.5443 7.19989 31.5 15.5 31.5Z" fill="#BBFF2C" stroke="black"/>
<path id="Vector_2" d="M21.0836 19.5139L21.8085 14.8442H17.2703V11.8141C17.2703 10.536 17.903 9.29145 19.937 9.29145H22V5.31593C22 5.31593 20.1285 5 18.337 5C14.5988 5 12.1552 7.23548 12.1552 11.2852V14.8442H8V19.5139H12.1552V30.8037C12.9891 30.933 13.8424 31 14.7127 31C15.583 31 16.4364 30.933 17.2703 30.8037V19.5139H21.0836Z" fill="white" stroke="black"/>
</g>
</svg>
