<svg width="31" height="32" viewBox="0 0 31 32" fill="none" xmlns="http://www.w3.org/2000/svg">
<path d="M15.5 31.5C23.8001 31.5 30.5 24.5443 30.5 16C30.5 7.4557 23.8001 0.5 15.5 0.5C7.19989 0.5 0.5 7.4557 0.5 16C0.5 24.5443 7.19989 31.5 15.5 31.5Z" fill="#BBFF2C" stroke="black"/>
<path d="M15.6484 7C13.3007 7 13.0057 7.01052 12.0841 7.05472C11.1645 7.09892 10.5359 7.24834 9.98454 7.47143C9.41693 7.70083 8.93476 8.006 8.4526 8.50269C7.97247 8.99937 7.67544 9.49816 7.45572 10.0875C7.2421 10.6557 7.09562 11.306 7.0529 12.2594C7.01017 13.2128 7 13.518 7 15.9467C7 18.3754 7.01017 18.6805 7.0529 19.6339C7.09562 20.5852 7.24007 21.2355 7.45572 21.8059C7.67747 22.3931 7.97247 22.8919 8.4526 23.3906C8.93273 23.8873 9.41489 24.1946 9.98454 24.4219C10.5338 24.6429 11.1625 24.7944 12.0841 24.8386C13.0057 24.8828 13.3007 24.8933 15.6484 24.8933C17.9962 24.8933 18.2912 24.8828 19.2128 24.8386C20.1324 24.7944 20.761 24.645 21.3124 24.4219C21.88 24.1925 22.3621 23.8873 22.8443 23.3906C23.3244 22.894 23.6215 22.3952 23.8412 21.8059C24.0548 21.2376 24.2013 20.5873 24.244 19.6339C24.2867 18.6805 24.2969 18.3754 24.2969 15.9467C24.2969 13.518 24.2867 13.2128 24.244 12.2594C24.2013 11.3081 24.0568 10.6578 23.8412 10.0875C23.6194 9.50027 23.3244 9.00148 22.8443 8.50269C22.3642 8.006 21.882 7.69873 21.3124 7.47143C20.7631 7.25045 20.1344 7.09892 19.2128 7.05472C18.2912 7.01052 17.9962 7 15.6484 7Z" fill="white"/>
<path d="M15.6484 8.61213C17.9575 8.61213 18.2302 8.62054 19.1416 8.66474C19.9839 8.70473 20.4416 8.84995 20.7468 8.97201C21.1496 9.13407 21.4385 9.32769 21.7416 9.64128C22.0448 9.95486 22.2319 10.2516 22.3886 10.6704C22.5066 10.9861 22.647 11.4597 22.6856 12.331C22.7263 13.2738 22.7365 13.5579 22.7365 15.9446C22.7365 18.3312 22.7283 18.6153 22.6856 19.5582C22.647 20.4295 22.5066 20.903 22.3886 21.2187C22.2319 21.6354 22.0448 21.9343 21.7416 22.2478C21.4385 22.5614 21.1516 22.7551 20.7468 22.9171C20.4416 23.0392 19.9839 23.1844 19.1416 23.2244C18.2302 23.2665 17.9575 23.277 15.6484 23.277C13.3393 23.277 13.0667 23.2686 12.1553 23.2244C11.313 23.1844 10.8553 23.0392 10.5501 22.9171C10.1473 22.7551 9.8584 22.5614 9.55527 22.2478C9.25214 21.9343 9.06497 21.6375 8.90831 21.2187C8.79032 20.903 8.64994 20.4295 8.61128 19.5582C8.5706 18.6153 8.56042 18.3312 8.56042 15.9446C8.56042 13.5579 8.56856 13.2738 8.61128 12.331C8.64994 11.4597 8.79032 10.9861 8.90831 10.6704C9.06497 10.2537 9.25214 9.95486 9.55527 9.64128C9.8584 9.32769 10.1453 9.13407 10.5501 8.97201C10.8553 8.84995 11.313 8.70473 12.1553 8.66474C13.0667 8.62265 13.3414 8.61213 15.6484 8.61213ZM15.6484 7C13.3007 7 13.0057 7.01052 12.0841 7.05472C11.1645 7.09892 10.5359 7.24834 9.98454 7.47143C9.41693 7.70083 8.93476 8.006 8.4526 8.50269C7.97247 8.99937 7.67544 9.49816 7.45572 10.0875C7.2421 10.6557 7.09562 11.306 7.0529 12.2594C7.01017 13.2128 7 13.518 7 15.9467C7 18.3754 7.01017 18.6805 7.0529 19.6339C7.09562 20.5852 7.24007 21.2355 7.45572 21.8059C7.67747 22.3931 7.97247 22.8919 8.4526 23.3906C8.93273 23.8873 9.41489 24.1946 9.98454 24.4219C10.5338 24.6429 11.1625 24.7944 12.0841 24.8386C13.0057 24.8828 13.3007 24.8933 15.6484 24.8933C17.9962 24.8933 18.2912 24.8828 19.2128 24.8386C20.1324 24.7944 20.761 24.645 21.3124 24.4219C21.88 24.1925 22.3621 23.8873 22.8443 23.3906C23.3244 22.894 23.6215 22.3952 23.8412 21.8059C24.0548 21.2376 24.2013 20.5873 24.244 19.6339C24.2867 18.6805 24.2969 18.3754 24.2969 15.9467C24.2969 13.518 24.2867 13.2128 24.244 12.2594C24.2013 11.3081 24.0568 10.6578 23.8412 10.0875C23.6194 9.50027 23.3244 9.00148 22.8443 8.50269C22.3642 8.006 21.882 7.69873 21.3124 7.47143C20.7631 7.25045 20.1344 7.09892 19.2128 7.05472C18.2912 7.01052 17.9962 7 15.6484 7Z" fill="black"/>
<path d="M15.648 11.3521C13.1965 11.3521 11.2089 13.4082 11.2089 15.9443C11.2089 18.4803 13.1965 20.5365 15.648 20.5365C18.0995 20.5365 20.0872 18.4803 20.0872 15.9443C20.0872 13.4082 18.0995 11.3521 15.648 11.3521ZM15.648 18.9265C14.0571 18.9265 12.7652 17.5922 12.7652 15.9443C12.7652 14.2964 14.0551 12.9621 15.648 12.9621C17.241 12.9621 18.5308 14.2964 18.5308 15.9443C18.5308 17.5922 17.241 18.9265 15.648 18.9265Z" fill="black"/>
<path d="M20.2645 12.2424C20.8375 12.2424 21.3021 11.7618 21.3021 11.1691C21.3021 10.5763 20.8375 10.0957 20.2645 10.0957C19.6915 10.0957 19.2269 10.5763 19.2269 11.1691C19.2269 11.7618 19.6915 12.2424 20.2645 12.2424Z" fill="black"/>
</svg>
