<svg width="31" height="32" viewBox="0 0 31 32" fill="none" xmlns="http://www.w3.org/2000/svg">
<path d="M15.5 31C23.5081 31 30 24.2843 30 16C30 7.71573 23.5081 1 15.5 1C7.49187 1 1 7.71573 1 16C1 24.2843 7.49187 31 15.5 31Z" fill="#BBFF2C" stroke="black"/>
<path d="M22.1892 9.08523C22.0229 8.61371 22.0228 8.61373 22.0227 8.61378L22.0221 8.61398L22.0199 8.61476L22.0111 8.61788L21.9762 8.6302L21.8402 8.67825L21.3232 8.86113C20.8775 9.01898 20.2398 9.24517 19.4716 9.51857C17.9353 10.0653 15.8771 10.8011 13.7896 11.5567C11.7027 12.3121 9.58469 13.0882 7.92964 13.7153C7.10249 14.0288 6.3881 14.3061 5.85 14.5257C5.58126 14.6353 5.35302 14.732 5.17519 14.8124C5.01132 14.8865 4.85469 14.9623 4.75491 15.0303C4.53959 15.1766 4.35119 15.3331 4.26456 15.5899C4.19289 15.7958 4.18861 15.9994 4.24396 16.1863C4.29765 16.3677 4.39841 16.5037 4.49142 16.5981C4.5841 16.6922 4.68074 16.7569 4.75023 16.7974C4.786 16.8182 4.81733 16.8341 4.84135 16.8455C4.85342 16.8513 4.86384 16.856 4.87227 16.8596L4.88344 16.8644L4.88788 16.8662L4.8898 16.867L4.89069 16.8673L4.89111 16.8675C4.89132 16.8676 4.89152 16.8677 5.07714 16.4034L4.89152 16.8677L4.90792 16.8742L4.92474 16.8796L9.10695 18.218L9.14654 18.2307L9.18767 18.2366L9.25935 17.7418C9.18767 18.2366 9.18773 18.2366 9.1878 18.2366L9.18794 18.2367L9.18822 18.2367L9.18884 18.2368L9.19026 18.237L9.19385 18.2375L9.20385 18.2388C9.21168 18.2398 9.22201 18.241 9.23423 18.2422C9.25799 18.2446 9.2921 18.2475 9.33082 18.2485C9.36748 18.2496 9.42023 18.2494 9.47769 18.242C9.52034 18.2366 9.62837 18.2206 9.73632 18.1525C10.2171 17.854 12.6056 16.3734 14.9371 14.9443C15.6731 14.4932 16.4029 14.0475 17.0649 13.6459C16.5446 14.1322 15.9759 14.6534 15.4081 15.168C14.4619 16.0257 13.5214 16.8623 12.8173 17.4847C12.4653 17.7958 12.1725 18.0533 11.9678 18.2329L11.8247 18.3583L11.4902 18.1941L11.4212 18.9137L11.0307 22.9814L11.0289 22.998C11.0275 23.0124 11.0258 23.0314 11.0244 23.0542C11.0215 23.0989 11.0194 23.1616 11.0226 23.233C11.0279 23.348 11.05 23.598 11.2061 23.8042C11.2962 23.9233 11.4316 24.0279 11.6133 24.07C11.7861 24.1101 11.9525 24.0826 12.0944 24.0318C12.3635 23.9357 12.6555 23.7161 12.9864 23.3919L12.9868 23.3915C13.7027 22.6887 14.3997 22.0795 14.8665 21.6855C16.2142 22.6032 17.5697 23.5546 18.1652 24.058C18.6052 24.4301 19.0133 24.5077 19.3507 24.4966L19.3522 24.4965C19.8743 24.4778 20.2045 24.1776 20.3843 23.9242C20.4735 23.7985 20.5324 23.6767 20.5692 23.5872C20.5879 23.5418 20.6016 23.5029 20.6111 23.4736C20.6159 23.4589 20.6197 23.4465 20.6225 23.4367L20.6261 23.4239L20.6274 23.4191L20.6279 23.417L20.6282 23.4161L20.6283 23.4157C20.6284 23.4155 20.6284 23.4153 20.1444 23.2898M20.1444 23.2898L20.6284 23.4153L20.6291 23.4125L20.1444 23.2898ZM20.1444 23.2898C20.6291 23.4125 20.6291 23.4124 20.6292 23.4123L20.6293 23.4119L20.6297 23.4103L20.6313 23.4039L20.6377 23.3787L20.6625 23.2805L20.7566 22.9065C20.8378 22.5837 20.9538 22.1208 21.0933 21.5604C21.3723 20.4398 21.7454 18.9291 22.1216 17.3691C22.4978 15.8096 22.8775 14.1988 23.1696 12.8786C23.4565 11.5817 23.6713 10.5123 23.699 10.0719C23.7012 10.039 23.7042 10.0032 23.7073 9.96576C23.7149 9.87427 23.7232 9.77327 23.7232 9.68371C23.7232 9.53501 23.7125 9.31772 23.6624 9.1645L23.6124 9.17248L23.6587 9.15613C23.61 9.01835 23.5397 8.88099 23.4224 8.76661C23.3047 8.65198 23.1772 8.59773 23.0911 8.56596M23.0911 8.56596C23.0915 8.56611 23.0919 8.56626 23.0923 8.56641L22.9171 9.03472L23.0899 8.56551C23.0903 8.56566 23.0907 8.56581 23.0911 8.56596Z" fill="white" stroke="black"/>
</svg>
